<svg xmlns="http://www.w3.org/2000/svg" xmlns:xlink="http://www.w3.org/1999/xlink" width="1080" zoomAndPan="magnify" viewBox="0 0 810 809.999993" height="1080" preserveAspectRatio="xMidYMid meet" version="1.0"><defs><g/><clipPath id="d79414364b"><path d="M 150.199219 349 L 287 349 L 287 485.511719 L 150.199219 485.511719 Z M 150.199219 349 " clip-rule="nonzero"/></clipPath><clipPath id="f8ccea66a1"><path d="M 161 334.761719 L 302.449219 334.761719 L 302.449219 477 L 161 477 Z M 161 334.761719 " clip-rule="nonzero"/></clipPath><clipPath id="4c447e9bb4"><path d="M 533 323 L 542.007812 323 L 542.007812 333 L 533 333 Z M 533 323 " clip-rule="nonzero"/></clipPath><clipPath id="80ae3f42e8"><path d="M 533 349 L 542.007812 349 L 542.007812 359 L 533 359 Z M 533 349 " clip-rule="nonzero"/></clipPath><clipPath id="f472dce897"><path d="M 266.007812 279 L 464 279 L 464 403.375 L 266.007812 403.375 Z M 266.007812 279 " clip-rule="nonzero"/></clipPath></defs><rect x="-81" width="972" fill="#ffffff" y="-80.999999" height="971.999992" fill-opacity="1"/><rect x="-81" width="972" fill="#ffffff" y="-80.999999" height="971.999992" fill-opacity="1"/><g clip-path="url(#d79414364b)"><path fill="#0097b2" d="M 189.714844 439.941406 L 155.640625 439.941406 C 152.636719 439.941406 150.199219 437.503906 150.199219 434.5 L 150.199219 400.691406 C 150.199219 397.683594 152.636719 395.246094 155.640625 395.246094 L 189.714844 395.246094 C 192.722656 395.246094 195.15625 392.8125 195.15625 389.804688 L 195.15625 354.933594 C 195.15625 351.925781 197.59375 349.488281 200.601562 349.488281 L 236.003906 349.488281 C 239.011719 349.488281 241.449219 351.925781 241.449219 354.933594 L 241.449219 389.804688 C 241.449219 392.8125 243.886719 395.246094 246.890625 395.246094 L 280.964844 395.246094 C 283.972656 395.246094 286.410156 397.683594 286.410156 400.691406 L 286.410156 434.5 C 286.410156 437.503906 283.972656 439.941406 280.964844 439.941406 L 246.890625 439.941406 C 243.886719 439.941406 241.449219 442.378906 241.449219 445.386719 L 241.449219 480.257812 C 241.449219 483.261719 239.011719 485.699219 236.003906 485.699219 L 200.601562 485.699219 C 197.59375 485.699219 195.15625 483.261719 195.15625 480.257812 L 195.15625 445.386719 C 195.15625 442.378906 192.722656 439.941406 189.714844 439.941406 " fill-opacity="1" fill-rule="nonzero"/></g><g clip-path="url(#f8ccea66a1)"><path fill="#393536" d="M 302.753906 383.261719 L 302.753906 427.957031 C 302.753906 429.460938 301.53125 430.679688 300.027344 430.679688 L 257.789062 430.679688 L 257.789062 473.714844 C 257.789062 475.21875 256.570312 476.441406 255.066406 476.441406 L 208.777344 476.441406 C 207.273438 476.441406 206.054688 475.21875 206.054688 473.714844 L 206.054688 430.679688 L 163.816406 430.679688 C 162.3125 430.679688 161.09375 429.460938 161.09375 427.957031 L 161.09375 383.261719 C 161.09375 381.757812 162.3125 380.539062 163.816406 380.539062 L 206.054688 380.539062 L 206.054688 337.503906 C 206.054688 336 207.273438 334.78125 208.777344 334.78125 L 255.066406 334.78125 C 256.570312 334.78125 257.789062 336 257.789062 337.503906 L 257.789062 368.769531 C 257.789062 370.277344 256.570312 371.496094 255.066406 371.496094 C 253.5625 371.496094 252.34375 370.277344 252.34375 368.769531 L 252.34375 340.230469 L 211.503906 340.230469 L 211.503906 383.261719 C 211.503906 384.769531 210.28125 385.988281 208.777344 385.988281 L 166.542969 385.988281 L 166.542969 425.230469 L 208.777344 425.230469 C 210.28125 425.230469 211.503906 426.449219 211.503906 427.957031 L 211.503906 470.992188 L 252.34375 470.992188 L 252.34375 427.957031 C 252.34375 426.449219 253.5625 425.230469 255.066406 425.230469 L 297.304688 425.230469 L 297.304688 385.988281 L 255.066406 385.988281 C 226.835938 385.988281 216.480469 408.636719 213.976562 415.578125 C 213.578125 416.6875 212.53125 417.378906 211.414062 417.378906 C 211.109375 417.378906 210.796875 417.328125 210.492188 417.21875 C 209.078125 416.707031 208.34375 415.144531 208.851562 413.730469 C 210.320312 409.65625 212.257812 405.769531 214.605469 402.183594 C 217.28125 398.097656 220.4375 394.496094 223.984375 391.484375 C 227.992188 388.074219 232.507812 385.417969 237.402344 383.589844 C 242.824219 381.566406 248.765625 380.539062 255.066406 380.539062 L 300.027344 380.539062 C 301.53125 380.539062 302.753906 381.757812 302.753906 383.261719 " fill-opacity="1" fill-rule="nonzero"/></g><path fill="#393536" d="M 541.992188 316.300781 C 541.992188 312.414062 541.25 309.898438 539.726562 308.503906 C 531.0625 300.578125 510.238281 306.058594 495.03125 310.0625 C 491.101562 311.097656 487.710938 311.988281 485.050781 312.519531 C 469.492188 315.625 459.039062 327.132812 459.039062 341.15625 C 459.039062 355.183594 469.492188 366.691406 485.050781 369.792969 C 487.710938 370.324219 491.101562 371.21875 495.03125 372.25 C 510.238281 376.253906 531.0625 381.738281 539.726562 373.8125 C 541.75 371.957031 542.394531 368.113281 541.75 361.722656 C 541.332031 357.558594 540.511719 353.832031 540.476562 353.675781 L 535.613281 354.753906 C 537.128906 361.59375 537.484375 368.933594 536.355469 370.148438 C 529.703125 376.234375 509.601562 370.941406 496.300781 367.4375 C 492.292969 366.382812 488.835938 365.472656 486.023438 364.910156 C 472.863281 362.289062 464.023438 352.742188 464.023438 341.15625 C 464.023438 329.574219 472.863281 320.027344 486.023438 317.402344 C 488.835938 316.84375 492.292969 315.929688 496.300781 314.875 C 509.601562 311.371094 529.703125 306.082031 536.363281 312.175781 C 537.484375 313.386719 537.128906 320.722656 535.613281 327.558594 L 540.476562 328.640625 C 540.511719 328.480469 541.332031 324.757812 541.75 320.59375 C 541.910156 319.007812 541.992188 317.578125 541.992188 316.300781 " fill-opacity="1" fill-rule="nonzero"/><g clip-path="url(#4c447e9bb4)"><path fill="#393536" d="M 538.042969 332.492188 C 540.394531 332.492188 542.296875 330.585938 542.296875 328.238281 C 542.296875 325.890625 540.394531 323.988281 538.042969 323.988281 C 535.695312 323.988281 533.789062 325.890625 533.789062 328.238281 C 533.789062 330.585938 535.695312 332.492188 538.042969 332.492188 " fill-opacity="1" fill-rule="nonzero"/></g><g clip-path="url(#80ae3f42e8)"><path fill="#393536" d="M 538.042969 358.160156 C 540.394531 358.160156 542.296875 356.257812 542.296875 353.910156 C 542.296875 351.566406 540.394531 349.660156 538.042969 349.660156 C 535.695312 349.660156 533.789062 351.566406 533.789062 353.910156 C 533.789062 356.257812 535.695312 358.160156 538.042969 358.160156 " fill-opacity="1" fill-rule="nonzero"/></g><g clip-path="url(#f472dce897)"><path fill="#393536" d="M 372.207031 403.296875 C 372.191406 403.296875 372.175781 403.296875 372.160156 403.296875 C 370.929688 403.273438 369.898438 402.355469 369.734375 401.136719 L 355.625 295.25 L 344.917969 340.664062 C 344.652344 341.789062 343.648438 342.585938 342.496094 342.585938 L 252.816406 342.585938 C 251.441406 342.585938 250.328125 341.46875 250.328125 340.097656 C 250.328125 338.722656 251.441406 337.605469 252.816406 337.605469 L 340.523438 337.605469 L 353.882812 280.9375 C 354.160156 279.769531 355.230469 278.960938 356.433594 279.023438 C 357.632812 279.082031 358.617188 279.988281 358.777344 281.179688 L 372.503906 384.1875 L 385.046875 310.382812 C 385.226562 309.320312 386.074219 308.492188 387.144531 308.339844 C 388.214844 308.183594 389.261719 308.738281 389.738281 309.707031 L 403.925781 338.667969 L 461.425781 338.667969 C 462.800781 338.667969 463.917969 339.785156 463.917969 341.15625 C 463.917969 342.53125 462.800781 343.644531 461.425781 343.644531 L 402.371094 343.644531 C 401.417969 343.644531 400.550781 343.105469 400.132812 342.25 L 388.660156 318.832031 L 374.660156 401.222656 C 374.457031 402.421875 373.417969 403.296875 372.207031 403.296875 " fill-opacity="1" fill-rule="nonzero"/></g><g fill="#000000" fill-opacity="1"><g transform="translate(307.54704, 429.624901)"><g><path d="M 15.109375 0 L 6.3125 0 L 6.3125 -48.546875 L 18.859375 -48.546875 L 31.140625 -12.84375 L 31.84375 -12.84375 L 44.0625 -48.546875 L 56.3125 -48.546875 L 56.3125 0 L 47.21875 0 L 47.21875 -32.078125 L 46.390625 -32.203125 L 35.15625 0 L 27.15625 0 L 15.9375 -32.203125 L 15.109375 -32.078125 Z M 15.109375 0 "/></g></g></g><g fill="#000000" fill-opacity="1"><g transform="translate(370.194135, 429.624901)"><g><path d="M 46.578125 0 L 36.484375 0 L 32.84375 -11.1875 L 14.25 -11.1875 L 10.59375 0 L 0.734375 0 L 17.5 -48.546875 L 29.8125 -48.546875 Z M 23.078125 -38.421875 L 16.828125 -19.265625 L 30.1875 -19.265625 L 23.90625 -38.421875 Z M 23.078125 -38.421875 "/></g></g></g><g fill="#000000" fill-opacity="1"><g transform="translate(417.50315, 429.624901)"><g><path d="M 15.609375 0 L 6.3125 0 L 6.3125 -48.546875 L 17.296875 -48.546875 L 36.796875 -17.265625 L 37.65625 -17.40625 L 37.65625 -48.546875 L 46.890625 -48.546875 L 46.890625 0 L 37.0625 0 L 16.4375 -33.40625 L 15.609375 -33.265625 Z M 15.609375 0 "/></g></g></g><g fill="#000000" fill-opacity="1"><g transform="translate(470.721642, 429.624901)"><g><path d="M 23.578125 0.703125 C 19.523438 0.703125 16.019531 -0.21875 13.0625 -2.0625 C 10.113281 -3.914062 7.832031 -6.707031 6.21875 -10.4375 C 4.613281 -14.164062 3.8125 -18.773438 3.8125 -24.265625 C 3.8125 -29.804688 4.773438 -34.441406 6.703125 -38.171875 C 8.628906 -41.898438 11.300781 -44.675781 14.71875 -46.5 C 18.144531 -48.320312 22.113281 -49.234375 26.625 -49.234375 C 31.28125 -49.234375 35.242188 -48.367188 38.515625 -46.640625 C 41.796875 -44.921875 44.097656 -42.359375 45.421875 -38.953125 L 38.421875 -34.703125 L 37.59375 -34.734375 C 36.59375 -36.898438 35.191406 -38.476562 33.390625 -39.46875 C 31.585938 -40.46875 29.332031 -40.96875 26.625 -40.96875 C 22.445312 -40.96875 19.25 -39.644531 17.03125 -37 C 14.820312 -34.351562 13.71875 -30.109375 13.71875 -24.265625 C 13.71875 -18.398438 14.75 -14.140625 16.8125 -11.484375 C 18.882812 -8.828125 21.945312 -7.5 26 -7.5 C 29.5 -7.5 32.078125 -8.285156 33.734375 -9.859375 C 35.390625 -11.429688 36.21875 -13.78125 36.21875 -16.90625 L 36.21875 -19 L 24.734375 -19 L 24.734375 -26.796875 L 45.75 -26.796875 L 45.75 0 L 36.59375 0 L 36.59375 -6.515625 L 35.890625 -6.609375 C 34.898438 -4.285156 33.390625 -2.484375 31.359375 -1.203125 C 29.335938 0.0664062 26.742188 0.703125 23.578125 0.703125 Z M 23.578125 0.703125 "/></g></g></g><g fill="#000000" fill-opacity="1"><g transform="translate(521.350588, 429.624901)"><g><path d="M 46.578125 0 L 36.484375 0 L 32.84375 -11.1875 L 14.25 -11.1875 L 10.59375 0 L 0.734375 0 L 17.5 -48.546875 L 29.8125 -48.546875 Z M 23.078125 -38.421875 L 16.828125 -19.265625 L 30.1875 -19.265625 L 23.90625 -38.421875 Z M 23.078125 -38.421875 "/></g></g></g><g fill="#000000" fill-opacity="1"><g transform="translate(568.659591, 429.624901)"><g><path d="M 15.90625 -48.546875 L 15.90625 -8.03125 L 37.71875 -8.03125 L 37.71875 0 L 6.3125 0 L 6.3125 -48.546875 Z M 15.90625 -48.546875 "/></g></g></g><g fill="#000000" fill-opacity="1"><g transform="translate(607.967573, 429.624901)"><g><path d="M 26.59375 0 L 17 0 L 17 -19.0625 L 0.234375 -48.546875 L 10.53125 -48.546875 L 21.609375 -29.453125 L 22.453125 -29.453125 L 33.296875 -48.546875 L 43.359375 -48.546875 L 26.59375 -19.0625 Z M 26.59375 0 "/></g></g></g><g fill="#000000" fill-opacity="1"><g transform="translate(651.558254, 429.624901)"><g><path d="M 46.578125 0 L 36.484375 0 L 32.84375 -11.1875 L 14.25 -11.1875 L 10.59375 0 L 0.734375 0 L 17.5 -48.546875 L 29.8125 -48.546875 Z M 23.078125 -38.421875 L 16.828125 -19.265625 L 30.1875 -19.265625 L 23.90625 -38.421875 Z M 23.078125 -38.421875 "/></g></g></g><g fill="#000000" fill-opacity="1"><g transform="translate(312.035321, 467.824796)"><g><path d="M 16.890625 -12.734375 L 16.890625 -21.421875 L 19.390625 -21.421875 L 19.390625 0 L 16.890625 0 L 16.890625 -10.59375 L 5.75 -10.59375 L 5.75 0 L 3.234375 0 L 3.234375 -21.421875 L 5.75 -21.421875 L 5.75 -12.734375 Z M 16.890625 -12.734375 "/></g></g><g transform="translate(334.681804, 467.824796)"><g><path d="M 11.75 0.3125 C 9.894531 0.3125 8.242188 -0.0859375 6.796875 -0.890625 C 5.347656 -1.691406 4.207031 -2.914062 3.375 -4.5625 C 2.550781 -6.207031 2.140625 -8.253906 2.140625 -10.703125 C 2.140625 -13.160156 2.550781 -15.210938 3.375 -16.859375 C 4.207031 -18.503906 5.347656 -19.722656 6.796875 -20.515625 C 8.242188 -21.316406 9.894531 -21.71875 11.75 -21.71875 C 13.601562 -21.71875 15.253906 -21.316406 16.703125 -20.515625 C 18.148438 -19.722656 19.285156 -18.503906 20.109375 -16.859375 C 20.941406 -15.210938 21.359375 -13.160156 21.359375 -10.703125 C 21.359375 -8.253906 20.941406 -6.207031 20.109375 -4.5625 C 19.285156 -2.914062 18.148438 -1.691406 16.703125 -0.890625 C 15.253906 -0.0859375 13.601562 0.3125 11.75 0.3125 Z M 11.75 -2.015625 C 13.976562 -2.015625 15.6875 -2.710938 16.875 -4.109375 C 18.0625 -5.503906 18.65625 -7.703125 18.65625 -10.703125 C 18.65625 -13.710938 18.0625 -15.910156 16.875 -17.296875 C 15.6875 -18.691406 13.976562 -19.390625 11.75 -19.390625 C 7.132812 -19.390625 4.828125 -16.492188 4.828125 -10.703125 C 4.828125 -4.910156 7.132812 -2.015625 11.75 -2.015625 Z M 11.75 -2.015625 "/></g></g><g transform="translate(358.177896, 467.824796)"><g><path d="M 5.5625 0 L 3.234375 0 L 3.234375 -21.421875 L 6.96875 -21.421875 L 13.46875 -3.28125 L 13.765625 -3.28125 L 20.265625 -21.421875 L 23.859375 -21.421875 L 23.859375 0 L 21.46875 0 L 21.46875 -17.46875 L 21.109375 -17.53125 L 14.78125 0 L 12.28125 0 L 5.9375 -17.53125 L 5.5625 -17.46875 Z M 5.5625 0 "/></g></g><g transform="translate(385.292153, 467.824796)"><g><path d="M 5.75 -10.09375 L 5.75 -2.078125 L 16.671875 -2.078125 L 16.671875 0 L 3.234375 0 L 3.234375 -21.421875 L 16.4375 -21.421875 L 16.4375 -19.34375 L 5.75 -19.34375 L 5.75 -12.171875 L 15.171875 -12.171875 L 15.171875 -10.09375 Z M 5.75 -10.09375 "/></g></g><g transform="translate(403.382972, 467.824796)"><g><path d="M 11.75 0.3125 C 9.894531 0.3125 8.242188 -0.0859375 6.796875 -0.890625 C 5.347656 -1.691406 4.207031 -2.914062 3.375 -4.5625 C 2.550781 -6.207031 2.140625 -8.253906 2.140625 -10.703125 C 2.140625 -13.160156 2.550781 -15.210938 3.375 -16.859375 C 4.207031 -18.503906 5.347656 -19.722656 6.796875 -20.515625 C 8.242188 -21.316406 9.894531 -21.71875 11.75 -21.71875 C 13.601562 -21.71875 15.253906 -21.316406 16.703125 -20.515625 C 18.148438 -19.722656 19.285156 -18.503906 20.109375 -16.859375 C 20.941406 -15.210938 21.359375 -13.160156 21.359375 -10.703125 C 21.359375 -8.253906 20.941406 -6.207031 20.109375 -4.5625 C 19.285156 -2.914062 18.148438 -1.691406 16.703125 -0.890625 C 15.253906 -0.0859375 13.601562 0.3125 11.75 0.3125 Z M 11.75 -2.015625 C 13.976562 -2.015625 15.6875 -2.710938 16.875 -4.109375 C 18.0625 -5.503906 18.65625 -7.703125 18.65625 -10.703125 C 18.65625 -13.710938 18.0625 -15.910156 16.875 -17.296875 C 15.6875 -18.691406 13.976562 -19.390625 11.75 -19.390625 C 7.132812 -19.390625 4.828125 -16.492188 4.828125 -10.703125 C 4.828125 -4.910156 7.132812 -2.015625 11.75 -2.015625 Z M 11.75 -2.015625 "/></g></g><g transform="translate(426.879065, 467.824796)"><g><path d="M 10.90625 -21.421875 C 12.375 -21.421875 13.632812 -21.15625 14.6875 -20.625 C 15.75 -20.09375 16.554688 -19.335938 17.109375 -18.359375 C 17.660156 -17.378906 17.9375 -16.222656 17.9375 -14.890625 C 17.9375 -13.566406 17.660156 -12.414062 17.109375 -11.4375 C 16.554688 -10.457031 15.75 -9.703125 14.6875 -9.171875 C 13.632812 -8.640625 12.375 -8.375 10.90625 -8.375 L 5.75 -8.375 L 5.75 0 L 3.234375 0 L 3.234375 -21.421875 Z M 10.828125 -10.53125 C 13.804688 -10.53125 15.296875 -11.984375 15.296875 -14.890625 C 15.296875 -17.816406 13.804688 -19.28125 10.828125 -19.28125 L 5.75 -19.28125 L 5.75 -10.53125 Z M 10.828125 -10.53125 "/></g></g><g transform="translate(446.405431, 467.824796)"><g><path d="M 19.28125 0 L 16.578125 0 L 14.609375 -5.875 L 5.484375 -5.875 L 3.484375 0 L 0.84375 0 L 8.328125 -21.421875 L 11.8125 -21.421875 Z M 9.859375 -18.828125 L 6.1875 -7.984375 L 13.890625 -7.984375 L 10.21875 -18.828125 Z M 9.859375 -18.828125 "/></g></g><g transform="translate(466.532383, 467.824796)"><g><path d="M 16.71875 -21.421875 L 16.71875 -19.28125 L 10 -19.28125 L 10 0 L 7.5 0 L 7.5 -19.28125 L 0.796875 -19.28125 L 0.796875 -21.421875 Z M 16.71875 -21.421875 "/></g></g><g transform="translate(484.022617, 467.824796)"><g><path d="M 16.890625 -12.734375 L 16.890625 -21.421875 L 19.390625 -21.421875 L 19.390625 0 L 16.890625 0 L 16.890625 -10.59375 L 5.75 -10.59375 L 5.75 0 L 3.234375 0 L 3.234375 -21.421875 L 5.75 -21.421875 L 5.75 -12.734375 Z M 16.890625 -12.734375 "/></g></g><g transform="translate(506.6691, 467.824796)"><g><path d="M 10.453125 0 L 7.953125 0 L 7.953125 -8.40625 L 0.5625 -21.421875 L 3.3125 -21.421875 L 9.078125 -11.375 L 9.453125 -11.375 L 15.171875 -21.421875 L 17.875 -21.421875 L 10.453125 -8.40625 Z M 10.453125 0 "/></g></g><g transform="translate(525.082185, 467.824796)"><g/></g><g transform="translate(532.4357, 467.824796)"><g><path d="M 11.84375 0.3125 C 9.96875 0.3125 8.296875 -0.113281 6.828125 -0.96875 C 5.359375 -1.832031 4.207031 -3.09375 3.375 -4.75 C 2.550781 -6.40625 2.140625 -8.390625 2.140625 -10.703125 C 2.140625 -13.023438 2.550781 -15.007812 3.375 -16.65625 C 4.207031 -18.3125 5.359375 -19.566406 6.828125 -20.421875 C 8.296875 -21.285156 9.96875 -21.71875 11.84375 -21.71875 C 13.84375 -21.71875 15.503906 -21.335938 16.828125 -20.578125 C 18.160156 -19.828125 19.117188 -18.691406 19.703125 -17.171875 L 18.09375 -16.09375 L 17.71875 -16.09375 C 17.132812 -17.320312 16.375 -18.191406 15.4375 -18.703125 C 14.5 -19.210938 13.300781 -19.46875 11.84375 -19.46875 C 10.488281 -19.46875 9.289062 -19.164062 8.25 -18.5625 C 7.207031 -17.96875 6.375 -17.015625 5.75 -15.703125 C 5.132812 -14.398438 4.828125 -12.734375 4.828125 -10.703125 C 4.828125 -8.671875 5.132812 -7.003906 5.75 -5.703125 C 6.375 -4.410156 7.207031 -3.460938 8.25 -2.859375 C 9.289062 -2.265625 10.488281 -1.96875 11.84375 -1.96875 C 13.394531 -1.96875 14.660156 -2.316406 15.640625 -3.015625 C 16.628906 -3.710938 17.363281 -4.84375 17.84375 -6.40625 L 18.203125 -6.40625 L 19.890625 -5.5625 C 19.378906 -3.664062 18.4375 -2.210938 17.0625 -1.203125 C 15.695312 -0.191406 13.957031 0.3125 11.84375 0.3125 Z M 11.84375 0.3125 "/></g></g><g transform="translate(553.441558, 467.824796)"><g><path d="M 5.75 -21.421875 L 5.75 -2.078125 L 16.0625 -2.078125 L 16.0625 0 L 3.234375 0 L 3.234375 -21.421875 Z M 5.75 -21.421875 "/></g></g><g transform="translate(570.419097, 467.824796)"><g><path d="M 5.75 0 L 3.234375 0 L 3.234375 -21.421875 L 5.75 -21.421875 Z M 5.75 0 "/></g></g><g transform="translate(579.427885, 467.824796)"><g><path d="M 5.703125 0 L 3.234375 0 L 3.234375 -21.421875 L 6.328125 -21.421875 L 16.765625 -5.046875 L 17.140625 -5.109375 L 17.140625 -21.421875 L 19.578125 -21.421875 L 19.578125 0 L 16.953125 0 L 6.0625 -17.5 L 5.703125 -17.453125 Z M 5.703125 0 "/></g></g><g transform="translate(602.264798, 467.824796)"><g><path d="M 5.75 0 L 3.234375 0 L 3.234375 -21.421875 L 5.75 -21.421875 Z M 5.75 0 "/></g></g><g transform="translate(611.273587, 467.824796)"><g><path d="M 11.84375 0.3125 C 9.96875 0.3125 8.296875 -0.113281 6.828125 -0.96875 C 5.359375 -1.832031 4.207031 -3.09375 3.375 -4.75 C 2.550781 -6.40625 2.140625 -8.390625 2.140625 -10.703125 C 2.140625 -13.023438 2.550781 -15.007812 3.375 -16.65625 C 4.207031 -18.3125 5.359375 -19.566406 6.828125 -20.421875 C 8.296875 -21.285156 9.96875 -21.71875 11.84375 -21.71875 C 13.84375 -21.71875 15.503906 -21.335938 16.828125 -20.578125 C 18.160156 -19.828125 19.117188 -18.691406 19.703125 -17.171875 L 18.09375 -16.09375 L 17.71875 -16.09375 C 17.132812 -17.320312 16.375 -18.191406 15.4375 -18.703125 C 14.5 -19.210938 13.300781 -19.46875 11.84375 -19.46875 C 10.488281 -19.46875 9.289062 -19.164062 8.25 -18.5625 C 7.207031 -17.96875 6.375 -17.015625 5.75 -15.703125 C 5.132812 -14.398438 4.828125 -12.734375 4.828125 -10.703125 C 4.828125 -8.671875 5.132812 -7.003906 5.75 -5.703125 C 6.375 -4.410156 7.207031 -3.460938 8.25 -2.859375 C 9.289062 -2.265625 10.488281 -1.96875 11.84375 -1.96875 C 13.394531 -1.96875 14.660156 -2.316406 15.640625 -3.015625 C 16.628906 -3.710938 17.363281 -4.84375 17.84375 -6.40625 L 18.203125 -6.40625 L 19.890625 -5.5625 C 19.378906 -3.664062 18.4375 -2.210938 17.0625 -1.203125 C 15.695312 -0.191406 13.957031 0.3125 11.84375 0.3125 Z M 11.84375 0.3125 "/></g></g></g></svg>