<svg width="86" height="86" viewBox="0 0 86 86" fill="none" xmlns="http://www.w3.org/2000/svg">
<circle cx="42.6851" cy="43.2461" r="42.5" fill="#E6ECF2"/>
<path d="M49.5601 43.2425C49.5601 47.0394 46.482 50.1175 42.6851 50.1175C38.8881 50.1175 35.8101 47.0394 35.8101 43.2425C35.8101 39.4455 38.8881 36.3675 42.6851 36.3675C46.482 36.3675 49.5601 39.4455 49.5601 43.2425ZM49.5601 43.2425C49.5601 47.0409 50.9351 50.1175 54.3726 50.1175C57.8101 50.1175 59.1851 47.0409 59.1851 43.2425C59.1842 39.5662 57.9557 35.9956 55.6944 33.0971C53.4332 30.1986 50.2687 28.1383 46.7032 27.2431C43.1376 26.3478 39.3752 26.669 36.013 28.1555C32.6508 29.6421 29.8812 32.2089 28.1439 35.4486C26.4066 38.6884 25.8009 42.4156 26.4231 46.0388C27.0453 49.662 28.8596 52.9736 31.5782 55.4482C34.2967 57.9229 37.7639 59.4187 41.4294 59.6985C45.095 59.9782 48.749 59.0258 51.8116 56.9924M49.5601 43.2425V36.3675" stroke="#0152A8" stroke-width="2" stroke-linecap="round" stroke-linejoin="round"/>
</svg>
