<svg width="36" height="35" viewBox="0 0 36 35" fill="none" xmlns="http://www.w3.org/2000/svg">
<g id="Icon">
<circle id="Ellipse 1" cx="17.7993" cy="17.312" r="17.312" fill="#085FBA"/>
<g id="Group 1">
<path id="Vector" d="M17.7999 20.1927C19.3916 20.1927 20.6819 18.9024 20.6819 17.3107C20.6819 15.719 19.3916 14.4287 17.7999 14.4287C16.2083 14.4287 14.918 15.719 14.918 17.3107C14.918 18.9024 16.2083 20.1927 17.7999 20.1927Z" stroke="white" stroke-linecap="round" stroke-linejoin="round"/>
<path id="Vector_2" d="M21.6254 23.0746C20.3415 23.927 18.8098 24.3262 17.2732 24.209C15.7366 24.0917 14.2832 23.4646 13.1436 22.4273C12.004 21.3899 11.2434 20.0017 10.9826 18.4828C10.7218 16.964 10.9757 15.4016 11.704 14.0435C12.4322 12.6854 13.5932 11.6094 15.0027 10.9862C16.4121 10.3631 17.9893 10.2285 19.4839 10.6037C20.9786 10.979 22.3051 11.8427 23.2531 13.0577C24.201 14.2728 24.716 15.7696 24.7163 17.3106C24.7163 18.9029 24.1399 20.1926 22.6989 20.1926C21.2579 20.1926 20.6815 18.9029 20.6815 17.3106V14.4287" stroke="white" stroke-linecap="round" stroke-linejoin="round"/>
</g>
</g>
</svg>
