<svg width="92" height="85" viewBox="0 0 92 85" fill="none" xmlns="http://www.w3.org/2000/svg">
<path id="Pattern" d="M44.3862 44.394C45.3216 44.394 46.2188 44.7656 46.8802 45.4271C47.5417 46.0885 47.9133 46.9857 47.9133 47.9211C47.9133 49.792 47.1701 51.5863 45.8472 52.9093C44.5242 54.2322 42.73 54.9754 40.859 54.9754C39.4678 54.9812 38.0893 54.7115 36.8028 54.1818C35.5164 53.6521 34.3476 52.8729 33.3639 51.8892C32.3801 50.9054 31.6009 49.7366 31.0712 48.4502C30.5415 47.1638 30.2718 45.7852 30.2776 44.394C30.2776 40.6522 31.7641 37.0636 34.4099 34.4177C37.0558 31.7719 40.6444 30.2854 44.3862 30.2854C49.0635 30.2854 53.5492 32.1435 56.8565 35.4508C60.1638 38.7582 62.0219 43.2439 62.0219 47.9211C62.0219 53.5339 59.7922 58.9167 55.8234 62.8855C51.8546 66.8543 46.4718 69.0839 40.859 69.0839C34.3109 69.0839 28.0309 66.4827 23.4006 61.8524C18.7703 57.2222 16.1691 50.9422 16.1691 44.394C16.1808 36.9139 19.1574 29.7436 24.4466 24.4544C29.7358 19.1652 36.9061 16.1886 44.3862 16.1769C52.8053 16.1769 60.8795 19.5214 66.8327 25.4746C72.7859 31.4278 76.1304 39.502 76.1304 47.9211C76.1304 52.553 75.2181 57.1396 73.4455 61.4189C71.673 65.6982 69.0749 69.5865 65.7997 72.8617C62.5244 76.137 58.6361 78.7351 54.3568 80.5076C50.0775 82.2802 45.4909 83.1925 40.859 83.1925C30.569 83.1925 20.7005 79.1048 13.4244 71.8287C6.14824 64.5525 2.06055 54.684 2.06055 44.394C2.06055 33.1685 6.51984 22.4028 14.4574 14.4653C22.395 6.52766 33.1607 2.06836 44.3862 2.06836C50.4077 2.06836 56.3702 3.25438 61.9333 5.55869C67.4964 7.86301 72.5512 11.2405 76.809 15.4983C81.0668 19.7561 84.4443 24.8109 86.7486 30.374C89.0529 35.9371 90.239 41.8997 90.239 47.9211" stroke="#D6EAE5" stroke-width="3" stroke-linecap="round" stroke-linejoin="round"/>
</svg>
