<svg width="40" height="30" viewBox="0 0 40 30" fill="none" xmlns="http://www.w3.org/2000/svg">
<path id="Vector" d="M33.055 6.07504H2.64799V2.10891C2.64799 1.75828 2.50871 1.42201 2.26078 1.17408C2.01284 0.926152 1.67658 0.786865 1.32595 0.786865C0.975322 0.786865 0.639055 0.926152 0.391124 1.17408C0.143193 1.42201 0.00390625 1.75828 0.00390625 2.10891V28.5498C0.00390625 28.9004 0.143193 29.2367 0.391124 29.4846C0.639055 29.7325 0.975322 29.8718 1.32595 29.8718C1.67658 29.8718 2.01284 29.7325 2.26078 29.4846C2.50871 29.2367 2.64799 28.9004 2.64799 28.5498V23.2616H37.0211V28.5498C37.0211 28.9004 37.1604 29.2367 37.4083 29.4846C37.6563 29.7325 37.9925 29.8718 38.3432 29.8718C38.6938 29.8718 39.0301 29.7325 39.278 29.4846C39.5259 29.2367 39.6652 28.9004 39.6652 28.5498V12.6853C39.6652 10.9321 38.9688 9.25078 37.7291 8.01113C36.4895 6.77147 34.8081 6.07504 33.055 6.07504ZM2.64799 8.71913H14.5464V20.6175H2.64799V8.71913Z" fill="#0FE3AF"/>
</svg>
