<svg width="35" height="35" viewBox="0 0 35 35" fill="none" xmlns="http://www.w3.org/2000/svg">
<g id="Icon">
<circle id="Ellipse 1" cx="17.312" cy="17.312" r="17.312" fill="#095FBA"/>
<path id="Vector" d="M15.0346 17.5399C15.6321 18.7736 16.6297 19.7687 17.8649 20.3629C17.956 20.4061 18.0568 20.4248 18.1574 20.4171C18.2579 20.4095 18.3547 20.3758 18.4382 20.3194L20.2525 19.1074C20.3327 19.0531 20.4253 19.0199 20.5218 19.011C20.6182 19.0021 20.7153 19.0178 20.8041 19.0566L24.2004 20.5153C24.3165 20.5637 24.4135 20.6488 24.4764 20.7576C24.5394 20.8665 24.5648 20.993 24.5488 21.1177C24.4411 21.9579 24.031 22.7301 23.3952 23.2897C22.7594 23.8494 21.9414 24.1583 21.0944 24.1584C18.4768 24.1584 15.9663 23.1186 14.1154 21.2677C12.2645 19.4167 11.2246 16.9063 11.2246 14.2887C11.2248 13.4416 11.5336 12.6237 12.0933 11.9878C12.653 11.352 13.4252 10.9419 14.2654 10.8343C14.3901 10.8182 14.5166 10.8437 14.6254 10.9066C14.7343 10.9696 14.8194 11.0665 14.8677 11.1826L16.3264 14.5862C16.3643 14.6736 16.3802 14.7689 16.3726 14.8638C16.365 14.9587 16.3342 15.0503 16.2829 15.1305L15.0709 16.9738C15.017 17.0572 14.9853 17.153 14.9789 17.2521C14.9726 17.3512 14.9918 17.4503 15.0346 17.5399V17.5399Z" stroke="white" stroke-linecap="round" stroke-linejoin="round"/>
</g>
</svg>
