<svg width="121" height="22" viewBox="0 0 121 22" fill="none" xmlns="http://www.w3.org/2000/svg">
<g id="Follow">
<g id="Fb">
<path id="Vector" fill-rule="evenodd" clip-rule="evenodd" d="M72.1406 10.9625C72.1406 5.01408 66.9913 0.190918 60.6406 0.190918C54.29 0.190918 49.1406 5.01408 49.1406 10.9625C49.1406 16.3387 53.3453 20.7949 58.8438 21.6038V14.0771H55.9231V10.9625H58.8438V8.58938C58.8438 5.89023 60.561 4.39808 63.1876 4.39808C64.4459 4.39808 65.7622 4.60871 65.7622 4.60871V7.25976H64.3114C62.8836 7.25976 62.437 8.08975 62.437 8.94282V10.9625H65.6262L65.1169 14.0771H62.4375V21.6047C67.9359 20.7964 72.1406 16.3401 72.1406 10.9625Z" fill="#0152A8"/>
</g>
<g id="Insta">
<path id="Vector_2" d="M16.0238 1.97563C17.2526 1.97916 18.4301 2.45045 19.299 3.28657C20.1679 4.12269 20.6576 5.25569 20.6613 6.43813V15.3622C20.6576 16.5446 20.1679 17.6776 19.299 18.5137C18.4301 19.3499 17.2526 19.8211 16.0238 19.8247H6.74994C5.52114 19.8211 4.34372 19.3499 3.47482 18.5137C2.60593 17.6776 2.11616 16.5446 2.11249 15.3622V6.43813C2.11616 5.25569 2.60593 4.12269 3.47482 3.28657C4.34372 2.45045 5.52114 1.97916 6.74994 1.97563H16.0238ZM16.0238 0.190918H6.74994C3.1792 0.190918 0.257812 3.00209 0.257812 6.43813V15.3622C0.257812 18.7982 3.1792 21.6094 6.74994 21.6094H16.0238C19.5946 21.6094 22.516 18.7982 22.516 15.3622V6.43813C22.516 3.00209 19.5946 0.190918 16.0238 0.190918Z" fill="#0152A8"/>
<path id="Vector_3" d="M17.4149 6.43854C17.1398 6.43854 16.8708 6.36003 16.642 6.21294C16.4132 6.06584 16.2349 5.85677 16.1297 5.61217C16.0244 5.36756 15.9968 5.0984 16.0505 4.83873C16.1042 4.57905 16.2367 4.34053 16.4312 4.15331C16.6258 3.9661 16.8736 3.83861 17.1435 3.78695C17.4133 3.7353 17.6931 3.76181 17.9473 3.86313C18.2015 3.96445 18.4187 4.13603 18.5716 4.35617C18.7244 4.57631 18.806 4.83512 18.806 5.09989C18.8064 5.27579 18.7707 5.45003 18.7009 5.61261C18.6312 5.7752 18.5287 5.92292 18.3994 6.0473C18.2702 6.17168 18.1167 6.27027 17.9477 6.33741C17.7788 6.40455 17.5977 6.43892 17.4149 6.43854ZM11.3868 7.33066C12.1205 7.33066 12.8378 7.54003 13.4479 7.9323C14.058 8.32456 14.5335 8.8821 14.8143 9.53442C15.0951 10.1867 15.1685 10.9045 15.0254 11.597C14.8822 12.2895 14.5289 12.9256 14.0101 13.4249C13.4912 13.9241 12.8302 14.2641 12.1106 14.4019C11.3909 14.5396 10.645 14.4689 9.96711 14.1987C9.28922 13.9285 8.70982 13.471 8.30217 12.8839C7.89453 12.2968 7.67695 11.6066 7.67695 10.9006C7.678 9.95408 8.0692 9.04664 8.7647 8.37738C9.46021 7.70811 10.4032 7.33167 11.3868 7.33066ZM11.3868 5.54594C10.2862 5.54594 9.2104 5.85999 8.29531 6.44836C7.38023 7.03673 6.66701 7.87301 6.24584 8.85144C5.82468 9.82987 5.71448 10.9065 5.92919 11.9452C6.1439 12.9839 6.67387 13.938 7.45208 14.6868C8.2303 15.4357 9.2218 15.9457 10.3012 16.1523C11.3806 16.3589 12.4995 16.2529 13.5163 15.8476C14.533 15.4423 15.4021 14.756 16.0136 13.8754C16.625 12.9949 16.9513 11.9596 16.9513 10.9006C16.9513 9.48043 16.3651 8.11846 15.3215 7.11428C14.278 6.11009 12.8626 5.54594 11.3868 5.54594Z" fill="#0152A8"/>
</g>
<g id="Twiter">
<path id="Vector_4" d="M120.612 4.22475C119.806 4.57446 118.954 4.80485 118.082 4.90865C118.999 4.37243 119.688 3.52054 120.02 2.51276C119.154 3.01902 118.208 3.37424 117.222 3.5632C116.807 3.12851 116.308 2.7827 115.755 2.5468C115.202 2.31089 114.607 2.18982 114.005 2.19093C111.571 2.19093 109.601 4.13088 109.601 6.5223C109.599 6.85493 109.637 7.18658 109.715 7.51015C107.969 7.42838 106.26 6.98341 104.696 6.20371C103.133 5.424 101.749 4.32673 100.634 2.9821C100.243 3.64103 100.036 4.39284 100.035 5.15897C100.035 6.66087 100.819 7.98844 102.003 8.76621C101.302 8.74957 100.615 8.56403 100 8.22535V8.27898C100 10.3799 101.521 12.1276 103.534 12.5254C103.156 12.6263 102.766 12.6774 102.374 12.6774C102.096 12.6779 101.818 12.6509 101.546 12.5969C102.105 14.3179 103.734 15.5695 105.663 15.6052C104.096 16.8125 102.171 17.465 100.192 17.4602C99.8405 17.4597 99.4895 17.4388 99.1406 17.3977C101.154 18.6824 103.495 19.362 105.883 19.3555C113.996 19.3555 118.428 12.7534 118.428 7.0274C118.428 6.83966 118.423 6.65193 118.414 6.46866C119.274 5.8572 120.018 5.09733 120.612 4.22475Z" fill="#0152A8"/>
</g>
</g>
</svg>
